<svg version="1.1" id="Layer_1" xmlns="http://www.w3.org/2000/svg" xmlns:xlink="http://www.w3.org/1999/xlink" x="0px" y="0px"
	 width="100%" viewBox="0 0 960 960" enable-background="new 0 0 960 960" xml:space="preserve">
<path fill="#000000" opacity="1.000000" stroke="none" 
	d="
M356.620056,302.000427 
	C356.467133,289.847473 356.982391,278.190277 356.231598,266.539154 
	C355.918152,261.675232 357.902679,259.708557 363.398132,260.024994 
	C388.882690,261.492401 414.353027,259.512024 439.836182,259.911804 
	C463.491364,260.282959 487.157135,260.054474 510.817505,259.938019 
	C514.252869,259.921112 516.858093,260.864197 519.245178,263.322845 
	C535.481384,280.045807 552.577209,295.898132 568.923096,312.526184 
	C580.105896,323.902008 591.366821,335.228333 602.682190,346.487030 
	C604.596924,348.392212 605.559082,350.455444 605.629089,353.089691 
	C606.479065,385.069366 604.967957,417.039429 605.270752,449.015991 
	C605.296631,451.747650 604.174744,453.729401 602.307251,455.591858 
	C574.718018,483.106628 547.136353,510.629211 519.640686,538.237366 
	C517.092834,540.795593 514.216797,541.102356 510.986206,541.100891 
	C464.330963,541.079895 417.675751,541.085632 371.020508,541.084290 
	C369.687469,541.084229 368.352875,541.030701 367.021667,541.077881 
	C354.277679,541.529419 356.550568,540.337158 356.440521,529.882690 
	C356.109375,498.421204 356.659790,466.951172 356.525238,435.485931 
	C356.505096,430.785583 358.124207,429.732971 362.227875,429.762726 
	C376.889740,429.869049 391.552948,429.830444 406.215485,429.784882 
	C412.183746,429.766357 412.891541,429.131592 412.789185,423.184357 
	C412.700989,418.060730 413.347076,413.893250 417.615753,409.854065 
	C430.060455,398.078278 441.828491,385.587250 453.854279,373.369202 
	C454.905579,372.301086 455.938965,371.210754 456.916931,370.075836 
	C462.105347,364.054901 462.022919,364.123047 467.503998,369.689667 
	C476.967316,379.300690 486.452576,388.893494 496.109985,398.307922 
	C498.902344,401.029999 499.082428,402.435699 495.988892,405.363403 
	C484.384033,416.346161 473.197052,427.770233 461.844666,439.020050 
	C448.605255,452.139862 435.343658,465.237305 422.133179,478.386169 
	C420.876221,479.637299 419.279022,480.735687 418.974152,482.762177 
	C420.188904,485.275665 422.536194,484.844086 424.628326,484.885620 
	C447.769287,485.344696 470.905914,486.129608 494.059387,485.681793 
	C496.816376,485.628448 498.746338,484.402802 500.739136,482.818604 
	C508.592651,476.575165 514.731628,468.603516 522.081848,461.818756 
	C531.365784,453.248962 539.756470,443.716644 548.658813,434.724548 
	C550.955688,432.404572 551.852295,429.876526 551.846069,426.700256 
	C551.812378,409.372864 551.884827,392.045319 551.895386,374.717804 
	C551.896851,372.373169 551.625549,370.220276 549.708130,368.356628 
	C533.361267,352.468201 517.073547,336.518463 500.839569,320.514679 
	C498.512115,318.220245 495.892822,317.384216 492.743713,317.386108 
	C469.249329,317.400208 445.754822,317.323364 422.260590,317.372345 
	C415.789551,317.385834 415.232300,318.056763 415.222809,324.618958 
	C415.191711,346.110077 415.213440,367.601288 415.181671,389.092407 
	C415.178833,391.014679 415.849335,393.488220 413.509155,394.379608 
	C411.412109,395.178345 410.405670,392.983032 409.133636,391.738403 
	C393.072357,376.023285 377.060638,360.256714 360.886932,344.658081 
	C357.863373,341.742035 356.639404,338.597229 356.683258,334.492493 
	C356.797302,323.829926 356.658936,313.164673 356.620056,302.000427 
z"/>
<path fill="#000000" opacity="1.000000" stroke="none" 
	d="
M574.539795,612.468811 
	C577.587036,616.862122 580.460571,620.938110 583.267883,625.059082 
	C585.381775,628.162170 587.508423,628.595337 589.857666,625.326538 
	C598.010254,613.982666 606.164917,602.640198 614.338684,591.311646 
	C617.063599,587.535095 619.838623,583.794556 622.612061,580.053345 
	C623.537720,578.804688 624.733337,577.853455 626.344666,577.817932 
	C634.149597,577.645630 641.957642,577.371887 649.760681,577.463135 
	C653.187134,577.503113 653.255859,580.406067 653.258423,583.007385 
	C653.274353,599.000305 653.307312,614.993225 653.309265,630.986145 
	C653.311890,652.310059 653.293396,673.633972 653.279480,694.957886 
	C653.275391,701.196472 652.987061,701.465759 646.833679,701.379822 
	C643.502686,701.333313 640.171082,701.314453 636.839722,701.312378 
	C629.093201,701.307495 628.893311,701.176636 628.880188,693.610352 
	C628.839966,670.453857 628.866089,647.297119 628.810547,624.140686 
	C628.804321,621.534241 629.349060,618.834595 628.091553,616.247498 
	C625.719971,615.854919 624.865906,617.758362 623.841431,619.090149 
	C614.612549,631.086182 605.748596,643.348633 597.199707,655.839966 
	C595.321960,658.583679 593.354065,661.275879 591.275513,663.869812 
	C587.689514,668.344788 586.012756,668.257690 582.208252,664.130676 
	C575.732056,657.105530 571.094177,648.778931 565.577332,641.076111 
	C560.348694,633.775757 555.125122,626.471313 549.825073,619.222900 
	C548.888000,617.941345 548.238281,616.207581 544.891479,615.751770 
	C544.891479,621.243225 544.880005,626.593933 544.893555,631.944641 
	C544.945007,652.266785 545.108887,672.589417 545.009521,692.910828 
	C544.970093,700.977966 544.024414,701.543213 535.860168,701.440369 
	C532.372253,701.396423 528.881165,701.747253 525.389648,701.809265 
	C522.098511,701.867676 520.002747,700.639771 520.003235,696.872803 
	C520.007874,660.897339 519.953491,624.921875 519.931885,588.946411 
	C519.924805,577.115417 519.946533,577.020264 531.794312,577.097168 
	C551.728027,577.226746 545.851013,573.659729 557.900696,589.570068 
	C563.523621,596.994568 568.867371,604.630615 574.539795,612.468811 
z"/>
<path fill="#000000" opacity="1.000000" stroke="none" 
	d="
M503.661316,616.372498 
	C503.724548,637.737183 498.134644,645.536377 473.225037,658.449341 
	C485.747009,672.168579 498.084503,685.685669 510.403687,699.182678 
	C508.992950,701.406799 507.020447,700.977844 505.296722,700.992554 
	C499.302521,701.043945 493.301910,700.820251 487.314697,701.023682 
	C483.967377,701.137512 481.717346,699.830261 479.574585,697.417908 
	C469.402283,685.966064 459.042938,674.680054 448.914124,663.190430 
	C446.954865,660.967957 444.946747,659.920654 442.046844,660.035400 
	C437.888702,660.200012 433.708893,660.367981 429.562500,660.123840 
	C425.313538,659.873596 424.167328,661.673218 424.257080,665.693481 
	C424.479950,675.680603 424.173157,685.679260 424.380890,695.667053 
	C424.466614,699.787292 422.977875,701.424561 418.890808,701.221313 
	C414.736938,701.014648 410.551422,700.921509 406.406891,701.193054 
	C401.972748,701.483582 400.667877,699.641785 400.687775,695.370178 
	C400.805847,670.057190 400.711761,644.743286 400.685913,619.429688 
	C400.673676,607.439026 400.800903,595.445496 400.560547,583.459351 
	C400.474152,579.151001 401.799103,577.618530 406.243805,577.669495 
	C424.560547,577.879822 442.881134,577.722534 461.200043,577.785522 
	C485.331757,577.868591 500.949463,591.963684 503.661316,616.372498 
M446.497101,638.766174 
	C451.151337,638.741394 455.813751,638.884033 460.458038,638.656189 
	C469.550995,638.210205 476.471893,633.466492 478.696106,626.424866 
	C483.133057,612.377991 474.552856,600.016479 459.598145,599.456543 
	C449.471954,599.077332 439.319519,599.453857 429.181580,599.304932 
	C425.463562,599.250366 424.224243,600.801880 424.274658,604.380615 
	C424.415222,614.352600 424.445099,624.329590 424.275330,634.300476 
	C424.213959,637.904297 425.739655,638.935181 429.042633,638.840820 
	C434.524078,638.684204 440.012665,638.776001 446.497101,638.766174 
z"/>
<path fill="#000000" opacity="1.000000" stroke="none" 
	d="
M769.180725,584.748657 
	C786.149414,595.636780 793.719116,611.480286 796.234741,630.616089 
	C798.168335,645.324280 796.056396,659.239868 789.418091,672.273010 
	C780.947998,688.902283 767.022888,698.749084 748.692627,701.995422 
	C735.443726,704.341675 722.382080,703.946411 709.320007,699.623962 
	C690.386230,693.358459 679.024780,680.110291 673.396179,661.811462 
	C668.590393,646.187561 669.166748,630.240051 674.461853,614.699646 
	C682.407837,591.379150 702.613342,576.271545 727.300110,574.914124 
	C742.082520,574.101257 756.152588,576.444763 769.180725,584.748657 
M711.699219,675.844604 
	C716.606812,679.264099 722.165405,680.916443 728.014893,681.554443 
	C746.590454,683.580383 762.650452,675.416138 769.757690,657.679626 
	C773.923645,647.283325 773.559448,636.429810 770.909607,625.326477 
	C765.609863,603.119263 743.835510,595.216675 726.064514,598.162537 
	C710.757446,600.699890 701.159180,609.893555 696.445312,624.419250 
	C690.661804,642.240845 694.581970,664.174683 711.699219,675.844604 
z"/>
<path fill="#000000" opacity="1.000000" stroke="none" 
	d="
M164.715469,598.000305 
	C164.733368,592.170898 164.779297,586.841309 164.756577,581.511963 
	C164.746536,579.158020 165.496811,577.696594 168.164902,577.724792 
	C186.812698,577.921936 205.536026,576.491394 224.091919,578.251160 
	C246.371933,580.364014 261.426636,593.088562 269.381561,613.830139 
	C277.379120,634.683167 275.921906,655.471130 264.478821,674.373718 
	C253.739319,692.113953 236.404739,700.450684 215.760330,701.053345 
	C200.616531,701.495361 185.448654,701.050171 170.295563,701.274719 
	C165.853561,701.340576 164.597961,699.711609 164.616898,695.432678 
	C164.760010,663.122314 164.707214,630.811096 164.715469,598.000305 
M239.981491,610.510437 
	C234.730209,605.272766 228.423553,602.287598 221.079529,601.169922 
	C211.450027,599.704590 201.785080,600.742188 192.144058,600.397461 
	C189.029297,600.286072 188.160751,602.008606 188.167801,604.795776 
	C188.225616,627.624451 188.273788,650.453369 188.211990,673.281921 
	C188.203293,676.497314 189.343582,677.761536 192.581192,677.708191 
	C200.577454,677.576355 208.584366,677.859192 216.572861,677.576233 
	C221.387466,677.405701 226.081284,676.250854 230.544785,674.169373 
	C255.850739,662.368408 255.364944,625.684265 239.981491,610.510437 
z"/>
<path fill="#000000" opacity="1.000000" stroke="none" 
	d="
M357.000366,577.729736 
	C364.164154,577.736084 370.829712,577.837463 377.490875,577.708679 
	C380.928162,577.642273 382.330902,579.096680 382.256470,582.464233 
	C382.160797,586.793274 382.083038,591.135559 382.313477,595.455200 
	C382.531647,599.544617 380.965546,601.046448 376.813965,601.010681 
	C359.156250,600.858704 341.496429,600.973816 323.837402,600.951965 
	C313.311249,600.938904 313.310822,600.905884 313.311157,611.644226 
	C313.311310,615.642517 313.509888,619.653137 313.259979,623.635681 
	C313.013855,627.557800 314.485718,628.860657 318.425201,628.824036 
	C336.582611,628.655579 354.745026,628.908447 372.899597,628.624268 
	C377.950897,628.545227 379.889771,630.063965 379.445831,635.124146 
	C379.112244,638.927063 379.141083,642.799072 379.429626,646.608398 
	C379.704865,650.241150 378.207977,651.181274 374.828430,651.157349 
	C356.670349,651.028809 338.511108,651.062317 320.352264,651.050659 
	C313.324280,651.046204 313.321716,651.059143 313.319885,658.285889 
	C313.318756,662.783997 313.618927,667.306030 313.253021,671.773865 
	C312.842804,676.782410 314.964966,677.865784 319.605103,677.805969 
	C338.260864,677.565369 356.921387,677.690674 375.580170,677.697693 
	C382.306946,677.700256 382.317841,677.721985 382.332672,684.210266 
	C382.342224,688.375061 382.202087,692.543701 382.339111,696.703674 
	C382.442383,699.838806 381.336700,701.203552 378.027679,701.197876 
	C350.039795,701.149597 322.051666,701.184875 294.063873,701.272705 
	C290.766083,701.283081 289.758423,699.825806 289.760925,696.716431 
	C289.791229,658.732849 289.786377,620.749146 289.663391,582.765869 
	C289.650391,578.755554 291.245422,577.633850 295.026276,577.657166 
	C315.516968,577.783630 336.008850,577.724487 357.000366,577.729736 
z"/>
</svg>